<svg width="1121" height="504" viewBox="0 0 1121 504" fill="none" xmlns="http://www.w3.org/2000/svg" style="">
<mask id="path-1-outside-1" maskUnits="userSpaceOnUse" x="0.478455" y="-0.618866" width="1120" height="504" fill="black">
<path fill="white" width="1120" height="504" d="M0.478455 -0.618866 L1120.478455 -0.618866 L1120.478455 503.381134 L0.478455 503.381134 Z" class="JWPaFulf_0"></path>
<path fill-rule="evenodd" clip-rule="evenodd" d="M135.711 66.4991C145.114 69.5186 153.483 74.487 160.012 81.4465C169.151 91.1888 174.686 104.833 174.405 122.495C174.404 122.597 174.402 122.698 174.4 122.8C174.4 128.741 183.223 128.799 183.397 122.976C183.399 122.918 183.4 122.859 183.4 122.8C184.041 103.89 178.69 89.2604 169.633 78.2707C161.734 68.6873 151.018 61.8719 139 57.4C138.934 57.3761 138.868 57.3523 138.802 57.3286C138.641 57.2708 138.48 57.2134 138.319 57.1564C92.9158 41.0893 37.8253 55.8167 21.8369 102.694C21.726 103.019 21.617 103.345 21.5099 103.674C20.162 107.804 19.1146 112.179 18.4 116.8C8.2225 179.835 56.2487 218.797 104.288 257.771C144.043 290.024 183.808 322.284 190.6 368.2C190.798 369.471 190.973 370.73 191.126 371.977C191.13 372.011 191.134 372.045 191.138 372.079C194.206 397.277 188.22 417.583 176.8 433C174.655 435.852 172.419 438.515 170.103 440.996C170.085 441.015 170.067 441.034 170.05 441.053C125.824 488.34 52.5479 468.847 28.5325 415.859C22.9918 403.634 20.0732 389.626 20.7385 374.243C20.7564 373.83 20.7769 373.415 20.8 373C20.8042 372.953 20.8079 372.907 20.8112 372.861C21.2573 366.5 12.104 365.866 10.6663 372.079C10.6419 372.184 10.6198 372.291 10.6 372.4C10.5995 372.411 10.599 372.422 10.5985 372.433C9.83752 389.386 12.7257 404.504 18.3866 417.657C43.7722 476.636 124.916 496.085 182.8 464.2C189.432 460.571 195.621 456.289 201.197 451.35C201.254 451.3 201.311 451.249 201.368 451.198C209.507 443.953 216.332 435.298 221.315 425.219C229.073 409.523 232.363 390.37 229.188 367.697C229.178 367.627 229.168 367.557 229.158 367.487C229.107 367.125 229.054 366.763 229 366.4C228.813 365.131 228.598 363.869 228.355 362.615C228.337 362.522 228.319 362.429 228.3 362.336C224.862 344.898 216.083 328.845 204.188 313.639C187.115 291.811 163.624 271.726 140.303 251.786C94.1404 212.315 48.6428 173.413 54.8978 122.693C54.9079 122.611 54.918 122.53 54.9283 122.449C55.3374 119.215 55.9569 115.933 56.8 112.6C67 76.6 97 52 135.4 66.4C135.475 66.4236 135.55 66.4474 135.625 66.4713C135.653 66.4806 135.682 66.4898 135.711 66.4991ZM248.74 363.439C248.741 363.457 248.743 363.475 248.744 363.493C248.794 364.261 248.851 365.03 248.917 365.8C250.832 385.718 262.529 401.234 278.854 406.105C287.941 408.816 298.462 408.229 309.528 403.268C309.725 403.18 309.921 403.091 310.117 403C310.148 402.986 310.18 402.972 310.211 402.957C313.394 401.503 316.428 399.735 319.329 397.708C330.765 389.72 340.124 377.721 348.31 365.134C352.571 358.582 356.515 351.872 360.268 345.485L360.268 345.484C362.615 341.49 364.888 337.623 367.117 334C365.682 351.577 365.534 379.449 371.161 402.228C372.151 406.236 373.319 410.086 374.691 413.695C376.861 419.404 379.54 424.508 382.824 428.677C383.54 429.587 384.286 430.451 385.061 431.268C387.073 433.389 389.286 435.186 391.717 436.6C402.517 443.8 417.517 439 430.717 427.6C430.941 427.398 431.165 427.194 431.388 426.988C431.39 426.986 431.392 426.985 431.394 426.983C446.004 413.522 459.513 391.922 471.857 368.954C474.894 363.303 477.86 357.569 480.755 351.853C482.524 348.36 484.267 344.873 485.983 341.416C486.418 340.539 486.851 339.664 487.283 338.792C487.314 338.729 487.345 338.667 487.376 338.604C488.793 335.739 490.191 332.9 491.57 330.098C494.895 323.347 498.109 316.818 501.213 310.698C501.842 309.457 502.466 308.234 503.086 307.028C503.286 307.111 503.486 307.194 503.688 307.277C506.144 308.284 508.751 309.272 511.523 310.241C512.002 310.409 512.486 310.576 512.974 310.742C514.993 311.428 517.096 312.106 519.29 312.773C522.907 313.874 526.77 314.949 530.903 316C530.486 318.337 530.056 320.705 529.618 323.101C529.439 324.085 529.258 325.073 529.076 326.066C528.558 328.898 528.033 331.765 527.511 334.664C527.269 336.007 527.028 337.358 526.788 338.714C526.53 340.175 526.273 341.643 526.019 343.117C525.804 344.366 525.591 345.62 525.381 346.878C524.906 349.72 524.445 352.582 524.006 355.461C522.602 364.677 521.425 374.061 520.739 383.459C518.315 416.658 522.021 450.036 543.503 476.8C544.019 477.428 544.541 478.042 545.071 478.641C545.181 478.765 545.291 478.889 545.402 479.012C564.61 500.377 593.076 502.186 622.103 454C622.351 453.589 622.598 453.175 622.846 452.76C622.848 452.756 622.85 452.752 622.852 452.749C626.604 446.448 630.353 439.626 634.053 432.469C638.823 423.243 643.51 413.461 648.016 403.528C651.555 395.729 654.981 387.836 658.248 380.044C663.742 394.515 675.18 404.782 689.534 407.175C693.168 407.781 696.989 407.882 700.948 407.419C705.659 406.868 710.565 405.517 715.583 403.268C715.779 403.18 715.975 403.091 716.172 403C716.203 402.986 716.234 402.972 716.266 402.957C719.448 401.503 722.483 399.735 725.384 397.708C736.819 389.72 746.178 377.721 754.365 365.134C758.626 358.582 762.569 351.872 766.323 345.485C768.67 341.491 770.942 337.623 773.172 334C771.737 351.577 771.589 379.449 777.215 402.228C778.205 406.236 779.374 410.086 780.746 413.695C782.916 419.404 785.595 424.508 788.879 428.677C789.595 429.587 790.34 430.451 791.116 431.268C793.128 433.389 795.34 435.186 797.772 436.6C808.572 443.8 823.572 439 836.772 427.6C836.996 427.398 837.22 427.194 837.443 426.988C837.445 426.986 837.447 426.985 837.449 426.983C841.026 423.687 844.537 419.903 847.982 415.73C859.309 402.008 869.913 384.083 879.758 365.492C884.492 356.552 889.051 347.459 893.43 338.604C894.125 337.201 894.814 335.803 895.5 334.413C895.999 333.4 896.497 332.39 896.992 331.385C896.966 334.196 896.947 336.998 896.934 339.789C896.889 349.289 896.91 358.658 896.993 367.84C897.073 376.795 897.212 385.572 897.402 394.118C897.469 397.108 897.542 400.069 897.621 403C897.631 403.367 897.641 403.733 897.651 404.099C897.664 404.539 897.676 404.978 897.688 405.416C897.79 408.992 897.9 412.521 898.019 415.999C898.118 418.867 898.222 421.701 898.332 424.497C898.405 426.348 898.48 428.182 898.558 430C898.558 430.501 898.58 430.994 898.623 431.477C898.726 432.639 898.951 433.748 899.281 434.8C904.064 450.058 930.958 453.386 930.958 434.8C931.409 433.37 931.889 431.765 932.396 430C932.533 429.523 932.672 429.035 932.813 428.536C934.203 423.607 935.785 417.582 937.539 410.787C937.932 409.266 938.333 407.707 938.742 406.113C938.794 405.912 938.845 405.711 938.897 405.509C939.11 404.682 939.324 403.845 939.541 403C939.611 402.728 939.681 402.456 939.751 402.183L939.751 402.181C941.579 395.058 943.56 387.337 945.676 379.315C946.132 377.587 946.594 375.844 947.062 374.091C950.286 362.019 953.798 349.424 957.54 337.269C957.687 336.793 957.834 336.318 957.981 335.843C961.27 325.242 964.733 315.007 968.331 305.782C970.936 299.103 973.611 292.953 976.342 287.578C976.509 287.249 976.676 286.923 976.844 286.6C978.065 284.245 979.297 282.046 980.539 280.027C986.062 271.046 991.773 265.6 997.558 265.6C998.804 265.6 999.681 267.185 1000.3 269.493C1000.4 269.871 1000.49 270.268 1000.58 270.681C1001.76 276.244 1001.76 284.636 1001.76 286.6C1001.82 288.242 1001.85 289.937 1001.85 291.678C1001.85 291.827 1001.85 291.977 1001.85 292.127C1001.84 295.797 1001.71 299.665 1001.49 303.659C1001.27 307.507 1000.98 311.471 1000.63 315.49C1000.14 321.324 999.542 327.272 998.955 333.138C998.753 335.159 998.552 337.171 998.356 339.165C998.29 339.837 998.225 340.507 998.16 341.174C998.159 341.183 998.159 341.191 998.158 341.2C998.136 341.362 998.115 341.525 998.093 341.69C996.643 352.801 995.598 368.712 995.644 385.966C995.687 402.363 996.715 419.971 999.314 435.822C999.389 436.276 999.464 436.729 999.541 437.18C999.878 439.149 1000.24 441.089 1000.63 442.995C1000.64 443.084 1000.66 443.172 1000.68 443.261C1001.81 448.782 1003.16 454.009 1004.76 458.8C1006.23 462.787 1007.81 466.308 1009.48 469.377C1009.67 469.724 1009.86 470.066 1010.05 470.402C1022.27 491.837 1038.96 489.666 1050.44 468.193C1050.44 468.179 1050.45 468.165 1050.46 468.151C1050.83 467.454 1051.2 466.737 1051.56 466C1052.61 463.826 1053.64 461.639 1054.65 459.439C1054.97 458.757 1055.28 458.074 1055.59 457.39C1058.89 450.144 1062.01 442.764 1064.99 435.278C1068.73 425.873 1072.24 416.302 1075.6 406.623C1083.24 384.559 1090.06 361.933 1096.85 339.43C1096.86 339.386 1096.87 339.341 1096.89 339.296C1101.13 325.227 1105.35 311.205 1109.76 297.4C1109.86 297.082 1109.93 296.775 1109.99 296.477C1110 296.433 1110.01 296.389 1110.01 296.346C1111.22 289.447 1101.87 288.052 1100.16 293.2C1100.05 293.544 1099.94 293.887 1099.83 294.231C1099.82 294.266 1099.81 294.3 1099.8 294.335C1095.44 308.045 1091.25 322.137 1087.03 336.345C1086.91 336.768 1086.78 337.191 1086.66 337.614C1084.07 346.338 1081.47 355.102 1078.81 363.846C1072.06 386.059 1064.94 408.136 1056.7 429.071C1055.07 433.211 1053.4 437.306 1051.67 441.349C1051.64 441.415 1051.62 441.481 1051.59 441.547C1051.38 442.037 1051.17 442.526 1050.96 443.014C1050.89 443.165 1050.83 443.315 1050.76 443.465C1048.16 449.472 1045.45 455.359 1042.61 461.1C1042.54 461.241 1042.47 461.382 1042.4 461.523C1042.39 461.538 1042.38 461.553 1042.38 461.568C1042.27 461.782 1042.16 461.996 1042.06 462.21C1041.82 462.674 1041.59 463.138 1041.36 463.6C1037.16 472 1031.16 478 1027.56 465.4C1026.95 462.621 1026.46 459.446 1026.08 455.96C1026.07 455.929 1026.07 455.897 1026.07 455.865C1025.99 455.119 1025.91 454.358 1025.84 453.584C1025.83 453.529 1025.83 453.474 1025.82 453.419C1025.78 452.893 1025.73 452.361 1025.69 451.823C1025.67 451.587 1025.65 451.349 1025.63 451.11C1025.27 446.35 1025.06 441.152 1024.99 435.693C1024.93 431.684 1024.94 427.534 1025.01 423.313C1025.16 414.61 1025.54 405.607 1026.04 396.918C1027.04 379.71 1028.52 363.733 1029.59 353.762C1029.98 350.151 1030.31 347.327 1030.54 345.518C1030.55 345.478 1030.55 345.439 1030.56 345.4C1030.6 345.049 1030.64 344.698 1030.68 344.347C1032.91 324.164 1032.89 304.027 1029.03 286.6C1028.95 286.252 1028.88 285.906 1028.8 285.56C1028.78 285.507 1028.77 285.453 1028.76 285.4C1025.76 273.4 1019.16 258.4 1004.76 254.2C1002.3 253.576 999.896 253.419 997.558 253.682C991.619 254.352 986.077 257.738 980.922 263.085C975.302 268.916 970.142 277.08 965.431 286.6C965.198 287.071 964.966 287.546 964.735 288.024C964.469 288.574 964.204 289.129 963.941 289.687C962.673 292.38 961.438 295.167 960.237 298.029C957.546 304.438 955.024 311.22 952.667 318.147C952.518 318.584 952.37 319.022 952.223 319.459C951.148 322.654 950.109 325.875 949.104 329.103C948.369 331.462 947.653 333.823 946.956 336.179C945.341 341.633 943.824 347.056 942.405 352.342C939.046 364.854 936.231 376.593 933.943 386.133L933.942 386.141C932.591 391.773 931.424 396.639 930.438 400.445C930.201 401.359 929.974 402.212 929.758 403C929.758 402.17 929.757 401.208 929.756 400.124C929.756 400.1 929.756 400.077 929.756 400.053L929.753 396.584C929.748 391.719 929.741 385.29 929.744 377.729C929.747 371.242 929.757 363.922 929.781 356.039C929.8 349.92 929.828 343.463 929.868 336.794C929.905 330.497 929.953 324.011 930.015 317.443C930.046 314.155 930.08 310.846 930.118 307.53C930.119 307.487 930.119 307.445 930.12 307.403C930.122 307.228 930.124 307.052 930.126 306.877C930.268 294.645 930.462 282.327 930.725 270.598C930.753 269.336 930.782 268.081 930.812 266.833C930.985 259.627 931.185 252.675 931.418 246.14C931.426 245.895 931.435 245.65 931.444 245.407C932.338 220.612 933.697 201.96 935.758 198.4C938.217 194.783 940.914 191.084 943.784 187.309C943.894 187.163 944.005 187.018 944.116 186.872C944.211 186.748 944.307 186.623 944.402 186.498C945.561 184.982 946.747 183.453 947.957 181.913C950.589 178.561 953.33 175.152 956.14 171.69C957.917 169.501 959.72 167.29 961.541 165.059C973.85 149.975 986.937 133.938 997.586 117.173C1014.25 90.9439 1024.94 62.9322 1017.36 34C1017.29 33.7138 1017.22 33.4305 1017.14 33.1501C1017.13 33.0964 1017.11 33.0428 1017.1 32.9892C1010.81 9.31887 991.283 6.50814 971.758 14.2C971.723 14.2145 971.688 14.229 971.653 14.2435C971.516 14.3008 971.38 14.3585 971.243 14.4168C933.068 30.7076 918.383 84.0129 910.918 131.988C909.878 138.673 908.978 145.255 908.175 151.618C907.885 153.91 907.608 156.174 907.341 158.404C906.674 163.986 906.072 169.358 905.503 174.435L905.497 174.485C905.427 175.11 905.358 175.731 905.289 176.347C905.242 176.763 905.196 177.176 905.149 177.586C905.039 178.567 904.93 179.535 904.822 180.49C904.733 181.268 904.645 182.039 904.558 182.8C902.571 202.096 901.021 222.164 899.852 242.488C899.033 256.714 898.401 271.065 897.936 285.364C897.901 286.433 897.868 287.502 897.835 288.57C897.819 289.074 897.804 289.578 897.789 290.082C897.783 290.288 897.777 290.494 897.77 290.699C897.591 296.744 897.442 302.775 897.32 308.779C894.535 314.209 891.706 319.951 888.821 325.875C887.649 328.282 886.467 330.72 885.275 333.179C885.119 333.5 884.963 333.823 884.806 334.145C883.167 337.527 881.507 340.946 879.827 344.379C871.754 360.87 863.183 377.686 853.867 392.271C853.139 393.411 852.406 394.537 851.669 395.649C850.318 397.686 848.951 399.672 847.567 401.602C846.101 403.647 844.616 405.628 843.112 407.535C839.326 412.336 835.417 416.672 831.372 420.4C831.22 420.54 831.067 420.68 830.914 420.817C830.866 420.86 830.818 420.903 830.77 420.946C823.113 427.775 814.418 430.939 808.572 421C808.523 420.874 808.474 420.747 808.426 420.619C808.246 420.146 808.073 419.664 807.905 419.171C805.345 411.673 804.094 402.005 803.784 391.027C803.781 390.914 803.778 390.802 803.775 390.689C803.773 390.625 803.772 390.562 803.77 390.498C803.77 390.481 803.769 390.464 803.769 390.448C803.765 390.312 803.762 390.176 803.759 390.04C803.759 390.039 803.759 390.037 803.759 390.036C803.687 386.914 803.69 383.689 803.758 380.381C803.76 380.259 803.763 380.137 803.766 380.015C803.791 378.883 803.823 377.741 803.863 376.59C804.047 371.311 804.384 365.846 804.844 360.269C805.019 358.142 805.212 356 805.421 353.845C805.966 348.219 806.621 342.509 807.354 336.79C807.467 335.905 807.582 335.02 807.699 334.135C807.739 333.831 807.78 333.527 807.82 333.223C807.826 333.182 807.831 333.14 807.837 333.099C808.58 327.538 809.39 321.983 810.238 316.502C811.795 306.44 813.48 296.627 815.114 287.48C816.05 282.24 816.969 277.22 817.838 272.496C818.032 271.441 818.223 270.401 818.412 269.377L818.412 269.376L818.414 269.367L818.422 269.324C818.662 268.016 818.899 266.734 819.129 265.479C819.142 265.408 819.155 265.337 819.168 265.266C819.783 261.921 820.357 258.774 820.878 255.858C820.978 255.297 821.076 254.744 821.172 254.2C822.04 245.809 814.676 241.465 806.548 240.628C803.413 240.306 800.164 240.505 797.23 241.195C792.506 242.307 788.599 244.693 787.298 248.222C787.159 248.602 787.049 248.994 786.972 249.4C786.789 249.766 786.634 250.173 786.501 250.613C786.041 252.131 785.836 254.044 785.626 256.006C785.497 257.212 785.366 258.438 785.172 259.6C781.039 256.892 776.296 254.929 771.249 253.582C771.003 253.516 770.757 253.452 770.51 253.389C761.047 250.989 750.581 250.709 741.091 251.715C741.077 251.717 741.063 251.718 741.049 251.72C740.424 251.786 739.803 251.858 739.187 251.936C733.491 252.652 728.208 253.824 723.783 255.264C723.645 255.309 723.508 255.355 723.372 255.4C703.725 262.037 687.251 274.783 675.352 291.195C675.258 291.325 675.164 291.454 675.071 291.584C674.997 291.687 674.923 291.79 674.85 291.893C674.761 292.018 674.672 292.144 674.583 292.269C666.696 303.439 660.902 316.25 657.631 329.955C655.228 340.024 654.187 350.575 654.678 361.311C654.044 362.861 653.401 364.421 652.752 365.99C652.748 365.998 652.745 366.006 652.741 366.014C649.74 373.259 646.576 380.681 643.294 388.111C637.909 400.306 632.207 412.521 626.385 424.009C622.195 432.276 617.943 440.167 613.703 447.4C613.479 447.783 613.256 448.161 613.034 448.536C613.033 448.537 613.033 448.537 613.033 448.537C590.562 486.363 573.415 484.441 564.503 468.4C563.453 466.408 562.479 464.371 561.578 462.293C561.543 462.213 561.509 462.134 561.474 462.054C544.93 423.634 552.877 371.175 559.749 325.81C559.979 324.29 560.208 322.777 560.435 321.274C561.232 315.996 562.002 310.827 562.703 305.8C562.703 304.077 561.812 302.737 560.249 301.685C559.617 301.258 558.874 300.879 558.036 300.54C556.254 299.82 554.04 299.282 551.534 298.866C546.928 298.1 541.336 297.743 535.63 297.409C535.247 297.387 534.864 297.364 534.48 297.342C524.867 296.782 515.095 296.213 509.303 293.8C511.027 290.065 512.854 285.71 514.636 281C516.995 274.766 519.275 267.908 521.132 261.039C521.186 260.84 521.24 260.641 521.293 260.442C521.485 259.72 521.673 258.998 521.856 258.277C521.866 258.235 521.877 258.194 521.887 258.152C522.168 257.041 522.436 255.933 522.69 254.828C523.398 251.753 523.999 248.714 524.461 245.765C524.6 244.88 524.726 244.004 524.839 243.137C524.864 242.948 524.888 242.76 524.911 242.571C525.203 240.219 525.395 237.941 525.469 235.768C525.469 235.761 525.469 235.754 525.47 235.747C525.492 235.088 525.503 234.439 525.503 233.8C525.993 196.354 508.712 188.06 491.335 195.274C491.281 195.296 491.228 195.318 491.175 195.341C478.861 200.52 466.526 213.466 460.457 229.324C456.976 238.421 455.557 248.476 457.387 258.573C457.581 259.642 457.811 260.712 458.079 261.782C458.152 262.073 458.228 262.365 458.307 262.656C458.419 263.071 458.537 263.485 458.66 263.899C458.69 263.999 458.72 264.098 458.75 264.197C459.423 266.399 460.26 268.596 461.276 270.776C461.656 271.592 462.062 272.406 462.492 273.218C462.71 273.628 462.935 274.038 463.166 274.448C463.263 274.618 463.36 274.789 463.459 274.959C463.91 275.737 464.385 276.512 464.884 277.284C466.133 279.212 467.536 281.12 469.103 283C470.078 284.191 471.092 285.363 472.155 286.516C472.166 286.528 472.177 286.539 472.188 286.551C477.265 292.044 483.482 297.102 492.036 301.774C492.772 302.176 493.525 302.575 494.296 302.971C493.269 304.903 492.237 306.885 491.199 308.91C487.302 316.51 483.321 324.721 479.22 333.179C479.064 333.501 478.908 333.823 478.752 334.145C478.605 334.447 478.458 334.75 478.311 335.053C478.205 335.272 478.099 335.49 477.993 335.709C477.262 337.216 476.527 338.73 475.788 340.248C474.571 342.748 473.343 345.261 472.103 347.777C464.519 363.167 456.489 378.687 447.812 392.271C447.084 393.411 446.351 394.537 445.614 395.649C442.83 399.845 439.98 403.829 437.057 407.535C433.271 412.336 429.362 416.672 425.317 420.4C425.165 420.54 425.012 420.68 424.859 420.817C424.811 420.86 424.763 420.903 424.716 420.946C417.058 427.775 408.363 430.939 402.517 421C402.468 420.874 402.419 420.747 402.371 420.619C402.192 420.146 402.018 419.664 401.85 419.171C399.291 411.673 398.04 402.005 397.73 391.027C397.726 390.914 397.723 390.802 397.72 390.689C397.719 390.625 397.717 390.562 397.715 390.498C397.715 390.481 397.715 390.464 397.714 390.448C397.711 390.312 397.707 390.176 397.704 390.04C397.704 390.039 397.704 390.037 397.704 390.036C397.632 386.914 397.635 383.689 397.703 380.381C397.706 380.259 397.708 380.137 397.711 380.015C397.736 378.883 397.769 377.741 397.808 376.59C397.992 371.311 398.329 365.846 398.789 360.269C398.964 358.143 399.157 356 399.366 353.845C399.912 348.218 400.566 342.509 401.299 336.79C401.412 335.905 401.527 335.02 401.644 334.135C401.685 333.831 401.725 333.527 401.765 333.223C401.771 333.182 401.776 333.14 401.782 333.099C402.525 327.538 403.335 321.983 404.183 316.502C405.74 306.44 407.425 296.627 409.059 287.48C409.628 284.296 410.191 281.192 410.74 278.187C411.094 276.247 411.442 274.349 411.783 272.496C411.977 271.441 412.169 270.4 412.358 269.375L412.359 269.367L412.365 269.335C412.606 268.023 412.843 266.737 413.074 265.479C413.087 265.408 413.101 265.337 413.114 265.266C413.728 261.921 414.303 258.774 414.823 255.858C414.923 255.297 415.021 254.744 415.117 254.2C415.747 248.115 412.047 244.158 406.866 242.124C404.902 241.353 402.727 240.858 400.493 240.628C397.358 240.306 394.109 240.505 391.175 241.195C386.451 242.307 382.544 244.693 381.244 248.222C381.104 248.602 380.994 248.994 380.917 249.4C380.734 249.766 380.579 250.173 380.446 250.613C379.986 252.131 379.781 254.044 379.571 256.005C379.442 257.212 379.311 258.437 379.117 259.6C374.984 256.892 370.241 254.929 365.194 253.582C364.949 253.516 364.702 253.452 364.455 253.389C354.993 250.989 344.526 250.709 335.036 251.715C335.022 251.717 335.008 251.718 334.994 251.72C334.369 251.786 333.748 251.858 333.132 251.936C327.259 252.674 321.824 253.898 317.317 255.4C291.782 264.027 271.605 282.973 259.868 306.875C251.524 323.868 247.446 343.365 248.74 363.439ZM322.999 272.218C322.98 272.235 322.96 272.253 322.941 272.27C305.329 288.085 291.838 319.582 287.042 346.53C287.022 346.645 287.001 346.76 286.981 346.875C286.037 352.259 285.441 357.458 285.231 362.308C285.225 362.44 285.22 362.571 285.215 362.701C284.428 382.788 290.323 396.791 305.531 393.063C305.552 393.058 305.572 393.053 305.593 393.048C305.898 392.972 306.205 392.89 306.517 392.8C310.288 391.429 314.071 389.078 317.812 386.016C323.72 381.181 329.523 374.57 335.008 367.237C335.052 367.179 335.095 367.121 335.138 367.063C340.48 359.905 345.517 352.07 350.053 344.533C352.413 340.612 354.637 336.772 356.697 333.149C357.5 331.738 358.278 330.36 359.029 329.023C359.921 327.437 360.775 325.91 361.589 324.454C362.336 323.117 363.05 321.84 363.728 320.634C365.616 317.274 367.227 314.463 368.514 312.429C368.652 312.21 368.786 312 368.917 311.8C370.079 303.085 371.523 296.479 372.907 290.145C373.705 286.491 374.484 282.927 375.178 279.1C375.765 275.86 376.291 272.431 376.717 268.6C375.971 267.965 375.184 267.384 374.366 266.852C372.008 265.321 369.379 264.201 366.641 263.398C365.373 263.026 364.081 262.722 362.783 262.477C352.209 260.483 341.155 262.389 338.317 263.2C337.471 263.445 336.63 263.73 335.794 264.053C332.454 265.345 329.206 267.249 326.073 269.66C325.036 270.458 324.011 271.312 322.999 272.218ZM500.303 290.2C500.392 290.059 500.481 289.916 500.57 289.769C503.963 284.201 507.469 274.739 510.339 264.82C510.347 264.793 510.355 264.765 510.363 264.737C511.039 262.399 511.679 260.035 512.274 257.692C512.426 257.091 512.576 256.492 512.722 255.894C513.834 251.357 514.765 246.939 515.442 242.974C515.946 240.019 516.31 237.316 516.503 235C516.538 234.596 516.569 234.196 516.596 233.8C516.598 233.761 516.601 233.722 516.604 233.684C516.653 232.951 516.689 232.233 516.713 231.528C516.718 231.389 516.722 231.25 516.726 231.112C517.231 212.764 509.367 204.183 501.503 209.8C496.198 213.514 490.189 221.919 486.431 232.422C486.423 232.446 486.415 232.469 486.407 232.492C486.313 232.755 486.22 233.02 486.129 233.285C486.071 233.456 486.013 233.628 485.956 233.8C485.558 234.994 485.191 236.212 484.857 237.451C484.162 240.031 483.614 242.702 483.249 245.432C482.994 247.343 482.829 249.283 482.767 251.24C482.576 257.228 483.347 263.383 485.443 269.384C485.465 269.448 485.488 269.512 485.51 269.576C486.4 272.086 487.522 274.568 488.903 277C490.987 280.646 494.879 285.65 498.618 288.868C499.186 289.357 499.75 289.805 500.303 290.2ZM694.903 337.858C694.208 340.783 693.604 343.682 693.097 346.53C693.077 346.645 693.056 346.76 693.036 346.875C692.091 352.259 691.496 357.458 691.286 362.308C691.28 362.44 691.275 362.571 691.27 362.701C690.812 374.395 692.618 384.026 697.207 389.298C699.601 392.048 702.753 393.612 706.736 393.664C708.233 393.683 709.849 393.489 711.586 393.063C711.606 393.058 711.627 393.053 711.648 393.048C711.952 392.972 712.26 392.89 712.572 392.8C716.343 391.429 720.125 389.078 723.866 386.016C729.774 381.181 735.578 374.57 741.063 367.237C741.106 367.179 741.15 367.121 741.193 367.063C746.534 359.905 751.572 352.07 756.108 344.533C758.468 340.612 760.692 336.772 762.752 333.149C763.555 331.738 764.333 330.36 765.084 329.023C765.975 327.437 766.829 325.91 767.643 324.454C768.391 323.117 769.105 321.84 769.783 320.634C771.671 317.274 773.282 314.463 774.568 312.429C774.707 312.21 774.841 312 774.972 311.8C776.134 303.085 777.577 296.48 778.961 290.146L778.962 290.144C779.76 286.49 780.539 282.927 781.232 279.1C781.82 275.86 782.346 272.431 782.772 268.6C782.025 267.965 781.239 267.384 780.42 266.852C778.062 265.321 775.433 264.201 772.696 263.398C771.427 263.026 770.136 262.722 768.837 262.477C758.264 260.483 747.21 262.389 744.372 263.2C743.526 263.445 742.684 263.73 741.849 264.053C738.998 265.156 736.214 266.705 733.512 268.634C733.048 268.964 732.587 269.307 732.128 269.66C731.09 270.458 730.065 271.312 729.054 272.218C729.034 272.235 729.015 272.253 728.995 272.27C721.685 278.835 715.085 288.101 709.522 298.622C709.33 298.985 709.139 299.349 708.95 299.715C708.853 299.903 708.756 300.091 708.659 300.279C708.552 300.489 708.445 300.699 708.338 300.909C702.478 312.488 697.861 325.417 694.903 337.858ZM936.358 180.4C941.09 174.157 946.634 167.39 952.521 160.205C954.456 157.842 956.429 155.435 958.421 152.986C978.466 128.352 1000.58 99.5156 1007.85 70.2693C1008.74 66.6873 1009.41 63.0992 1009.82 59.5119C1009.87 59.1036 1009.91 58.6952 1009.95 58.2868C1010.68 50.9276 1010.33 43.5751 1008.62 36.2897C1008.61 36.2395 1008.6 36.1893 1008.59 36.1391C1008.51 35.8259 1008.44 35.5129 1008.36 35.2C1004.16 17.2 993.958 19.6 983.758 28.6C982.282 29.8445 980.85 31.2258 979.462 32.7324C979.368 32.8347 979.274 32.9377 979.18 33.0411C976.351 36.1599 973.702 39.8007 971.221 43.8653C971.048 44.1487 970.875 44.4341 970.704 44.7216C970.552 44.9759 970.401 45.2319 970.251 45.4894C970.056 45.824 969.862 46.1613 969.668 46.5011C969.544 46.7198 969.42 46.9394 969.297 47.1602C969.253 47.2373 969.21 47.3146 969.167 47.392C967.639 50.1408 966.179 53.0519 964.782 56.0995C959.277 68.1103 954.765 82.2418 951.043 96.9189C943.423 126.964 939.111 159.295 936.358 180.4Z" class="JWPaFulf_1"></path>
</mask>
<path fill-rule="evenodd" clip-rule="evenodd" d="M135.711 66.4991C145.114 69.5186 153.483 74.487 160.012 81.4465C169.151 91.1888 174.686 104.833 174.405 122.495C174.404 122.597 174.402 122.698 174.4 122.8C174.4 128.741 183.223 128.799 183.397 122.976C183.399 122.918 183.4 122.859 183.4 122.8C184.041 103.89 178.69 89.2604 169.633 78.2707C161.734 68.6873 151.018 61.8719 139 57.4C138.934 57.3761 138.868 57.3523 138.802 57.3286C138.641 57.2708 138.48 57.2134 138.319 57.1564C92.9158 41.0893 37.8253 55.8167 21.8369 102.694C21.726 103.019 21.617 103.345 21.5099 103.674C20.162 107.804 19.1146 112.179 18.4 116.8C8.2225 179.835 56.2487 218.797 104.288 257.771C144.043 290.024 183.808 322.284 190.6 368.2C190.798 369.471 190.973 370.73 191.126 371.977C191.13 372.011 191.134 372.045 191.138 372.079C194.206 397.277 188.22 417.583 176.8 433C174.655 435.852 172.419 438.515 170.103 440.996C170.085 441.015 170.067 441.034 170.05 441.053C125.824 488.34 52.5479 468.847 28.5325 415.859C22.9918 403.634 20.0732 389.626 20.7385 374.243C20.7564 373.83 20.7769 373.415 20.8 373C20.8042 372.953 20.8079 372.907 20.8112 372.861C21.2573 366.5 12.104 365.866 10.6663 372.079C10.6419 372.184 10.6198 372.291 10.6 372.4C10.5995 372.411 10.599 372.422 10.5985 372.433C9.83752 389.386 12.7257 404.504 18.3866 417.657C43.7722 476.636 124.916 496.085 182.8 464.2C189.432 460.571 195.621 456.289 201.197 451.35C201.254 451.3 201.311 451.249 201.368 451.198C209.507 443.953 216.332 435.298 221.315 425.219C229.073 409.523 232.363 390.37 229.188 367.697C229.178 367.627 229.168 367.557 229.158 367.487C229.107 367.125 229.054 366.763 229 366.4C228.813 365.131 228.598 363.869 228.355 362.615C228.337 362.522 228.319 362.429 228.3 362.336C224.862 344.898 216.083 328.845 204.188 313.639C187.115 291.811 163.624 271.726 140.303 251.786C94.1404 212.315 48.6428 173.413 54.8978 122.693C54.9079 122.611 54.918 122.53 54.9283 122.449C55.3374 119.215 55.9569 115.933 56.8 112.6C67 76.6 97 52 135.4 66.4C135.475 66.4236 135.55 66.4474 135.625 66.4713C135.653 66.4806 135.682 66.4898 135.711 66.4991ZM248.74 363.439C248.741 363.457 248.743 363.475 248.744 363.493C248.794 364.261 248.851 365.03 248.917 365.8C250.832 385.718 262.529 401.234 278.854 406.105C287.941 408.816 298.462 408.229 309.528 403.268C309.725 403.18 309.921 403.091 310.117 403C310.148 402.986 310.18 402.972 310.211 402.957C313.394 401.503 316.428 399.735 319.329 397.708C330.765 389.72 340.124 377.721 348.31 365.134C352.571 358.582 356.515 351.872 360.268 345.485L360.268 345.484C362.615 341.49 364.888 337.623 367.117 334C365.682 351.577 365.534 379.449 371.161 402.228C372.151 406.236 373.319 410.086 374.691 413.695C376.861 419.404 379.54 424.508 382.824 428.677C383.54 429.587 384.286 430.451 385.061 431.268C387.073 433.389 389.286 435.186 391.717 436.6C402.517 443.8 417.517 439 430.717 427.6C430.941 427.398 431.165 427.194 431.388 426.988C431.39 426.986 431.392 426.985 431.394 426.983C446.004 413.522 459.513 391.922 471.857 368.954C474.894 363.303 477.86 357.569 480.755 351.853C482.524 348.36 484.267 344.873 485.983 341.416C486.418 340.539 486.851 339.664 487.283 338.792C487.314 338.729 487.345 338.667 487.376 338.604C488.793 335.739 490.191 332.9 491.57 330.098C494.895 323.347 498.109 316.818 501.213 310.698C501.842 309.457 502.466 308.234 503.086 307.028C503.286 307.111 503.486 307.194 503.688 307.277C506.144 308.284 508.751 309.272 511.523 310.241C512.002 310.409 512.486 310.576 512.974 310.742C514.993 311.428 517.096 312.106 519.29 312.773C522.907 313.874 526.77 314.949 530.903 316C530.486 318.337 530.056 320.705 529.618 323.101C529.439 324.085 529.258 325.073 529.076 326.066C528.558 328.898 528.033 331.765 527.511 334.664C527.269 336.007 527.028 337.358 526.788 338.714C526.53 340.175 526.273 341.643 526.019 343.117C525.804 344.366 525.591 345.62 525.381 346.878C524.906 349.72 524.445 352.582 524.006 355.461C522.602 364.677 521.425 374.061 520.739 383.459C518.315 416.658 522.021 450.036 543.503 476.8C544.019 477.428 544.541 478.042 545.071 478.641C545.181 478.765 545.291 478.889 545.402 479.012C564.61 500.377 593.076 502.186 622.103 454C622.351 453.589 622.598 453.175 622.846 452.76C622.848 452.756 622.85 452.752 622.852 452.749C626.604 446.448 630.353 439.626 634.053 432.469C638.823 423.243 643.51 413.461 648.016 403.528C651.555 395.729 654.981 387.836 658.248 380.044C663.742 394.515 675.18 404.782 689.534 407.175C693.168 407.781 696.989 407.882 700.948 407.419C705.659 406.868 710.565 405.517 715.583 403.268C715.779 403.18 715.975 403.091 716.172 403C716.203 402.986 716.234 402.972 716.266 402.957C719.448 401.503 722.483 399.735 725.384 397.708C736.819 389.72 746.178 377.721 754.365 365.134C758.626 358.582 762.569 351.872 766.323 345.485C768.67 341.491 770.942 337.623 773.172 334C771.737 351.577 771.589 379.449 777.215 402.228C778.205 406.236 779.374 410.086 780.746 413.695C782.916 419.404 785.595 424.508 788.879 428.677C789.595 429.587 790.34 430.451 791.116 431.268C793.128 433.389 795.34 435.186 797.772 436.6C808.572 443.8 823.572 439 836.772 427.6C836.996 427.398 837.22 427.194 837.443 426.988C837.445 426.986 837.447 426.985 837.449 426.983C841.026 423.687 844.537 419.903 847.982 415.73C859.309 402.008 869.913 384.083 879.758 365.492C884.492 356.552 889.051 347.459 893.43 338.604C894.125 337.201 894.814 335.803 895.5 334.413C895.999 333.4 896.497 332.39 896.992 331.385C896.966 334.196 896.947 336.998 896.934 339.789C896.889 349.289 896.91 358.658 896.993 367.84C897.073 376.795 897.212 385.572 897.402 394.118C897.469 397.108 897.542 400.069 897.621 403C897.631 403.367 897.641 403.733 897.651 404.099C897.664 404.539 897.676 404.978 897.688 405.416C897.79 408.992 897.9 412.521 898.019 415.999C898.118 418.867 898.222 421.701 898.332 424.497C898.405 426.348 898.48 428.182 898.558 430C898.558 430.501 898.58 430.994 898.623 431.477C898.726 432.639 898.951 433.748 899.281 434.8C904.064 450.058 930.958 453.386 930.958 434.8C931.409 433.37 931.889 431.765 932.396 430C932.533 429.523 932.672 429.035 932.813 428.536C934.203 423.607 935.785 417.582 937.539 410.787C937.932 409.266 938.333 407.707 938.742 406.113C938.794 405.912 938.845 405.711 938.897 405.509C939.11 404.682 939.324 403.845 939.541 403C939.611 402.728 939.681 402.456 939.751 402.183L939.751 402.181C941.579 395.058 943.56 387.337 945.676 379.315C946.132 377.587 946.594 375.844 947.062 374.091C950.286 362.019 953.798 349.424 957.54 337.269C957.687 336.793 957.834 336.318 957.981 335.843C961.27 325.242 964.733 315.007 968.331 305.782C970.936 299.103 973.611 292.953 976.342 287.578C976.509 287.249 976.676 286.923 976.844 286.6C978.065 284.245 979.297 282.046 980.539 280.027C986.062 271.046 991.773 265.6 997.558 265.6C998.804 265.6 999.681 267.185 1000.3 269.493C1000.4 269.871 1000.49 270.268 1000.58 270.681C1001.76 276.244 1001.76 284.636 1001.76 286.6C1001.82 288.242 1001.85 289.937 1001.85 291.678C1001.85 291.827 1001.85 291.977 1001.85 292.127C1001.84 295.797 1001.71 299.665 1001.49 303.659C1001.27 307.507 1000.98 311.471 1000.63 315.49C1000.14 321.324 999.542 327.272 998.955 333.138C998.753 335.159 998.552 337.171 998.356 339.165C998.29 339.837 998.225 340.507 998.16 341.174C998.159 341.183 998.159 341.191 998.158 341.2C998.136 341.362 998.115 341.525 998.093 341.69C996.643 352.801 995.598 368.712 995.644 385.966C995.687 402.363 996.715 419.971 999.314 435.822C999.389 436.276 999.464 436.729 999.541 437.18C999.878 439.149 1000.24 441.089 1000.63 442.995C1000.64 443.084 1000.66 443.172 1000.68 443.261C1001.81 448.782 1003.16 454.009 1004.76 458.8C1006.23 462.787 1007.81 466.308 1009.48 469.377C1009.67 469.724 1009.86 470.066 1010.05 470.402C1022.27 491.837 1038.96 489.666 1050.44 468.193C1050.44 468.179 1050.45 468.165 1050.46 468.151C1050.83 467.454 1051.2 466.737 1051.56 466C1052.61 463.826 1053.64 461.639 1054.65 459.439C1054.97 458.757 1055.28 458.074 1055.59 457.39C1058.89 450.144 1062.01 442.764 1064.99 435.278C1068.73 425.873 1072.24 416.302 1075.6 406.623C1083.24 384.559 1090.06 361.933 1096.85 339.43C1096.86 339.386 1096.87 339.341 1096.89 339.296C1101.13 325.227 1105.35 311.205 1109.76 297.4C1109.86 297.082 1109.93 296.775 1109.99 296.477C1110 296.433 1110.01 296.389 1110.01 296.346C1111.22 289.447 1101.87 288.052 1100.16 293.2C1100.05 293.544 1099.94 293.887 1099.83 294.231C1099.82 294.266 1099.81 294.3 1099.8 294.335C1095.44 308.045 1091.25 322.137 1087.03 336.345C1086.91 336.768 1086.78 337.191 1086.66 337.614C1084.07 346.338 1081.47 355.102 1078.81 363.846C1072.06 386.059 1064.94 408.136 1056.7 429.071C1055.07 433.211 1053.4 437.306 1051.67 441.349C1051.64 441.415 1051.62 441.481 1051.59 441.547C1051.38 442.037 1051.17 442.526 1050.96 443.014C1050.89 443.165 1050.83 443.315 1050.76 443.465C1048.16 449.472 1045.45 455.359 1042.61 461.1C1042.54 461.241 1042.47 461.382 1042.4 461.523C1042.39 461.538 1042.38 461.553 1042.38 461.568C1042.27 461.782 1042.16 461.996 1042.06 462.21C1041.82 462.674 1041.59 463.138 1041.36 463.6C1037.16 472 1031.16 478 1027.56 465.4C1026.95 462.621 1026.46 459.446 1026.08 455.96C1026.07 455.929 1026.07 455.897 1026.07 455.865C1025.99 455.119 1025.91 454.358 1025.84 453.584C1025.83 453.529 1025.83 453.474 1025.82 453.419C1025.78 452.893 1025.73 452.361 1025.69 451.823C1025.67 451.587 1025.65 451.349 1025.63 451.11C1025.27 446.35 1025.06 441.152 1024.99 435.693C1024.93 431.684 1024.94 427.534 1025.01 423.313C1025.16 414.61 1025.54 405.607 1026.04 396.918C1027.04 379.71 1028.52 363.733 1029.59 353.762C1029.98 350.151 1030.31 347.327 1030.54 345.518C1030.55 345.478 1030.55 345.439 1030.56 345.4C1030.6 345.049 1030.64 344.698 1030.68 344.347C1032.91 324.164 1032.89 304.027 1029.03 286.6C1028.95 286.252 1028.88 285.906 1028.8 285.56C1028.78 285.507 1028.77 285.453 1028.76 285.4C1025.76 273.4 1019.16 258.4 1004.76 254.2C1002.3 253.576 999.896 253.419 997.558 253.682C991.619 254.352 986.077 257.738 980.922 263.085C975.302 268.916 970.142 277.08 965.431 286.6C965.198 287.071 964.966 287.546 964.735 288.024C964.469 288.574 964.204 289.129 963.941 289.687C962.673 292.38 961.438 295.167 960.237 298.029C957.546 304.438 955.024 311.22 952.667 318.147C952.518 318.584 952.37 319.022 952.223 319.459C951.148 322.654 950.109 325.875 949.104 329.103C948.369 331.462 947.653 333.823 946.956 336.179C945.341 341.633 943.824 347.056 942.405 352.342C939.046 364.854 936.231 376.593 933.943 386.133L933.942 386.141C932.591 391.773 931.424 396.639 930.438 400.445C930.201 401.359 929.974 402.212 929.758 403C929.758 402.17 929.757 401.208 929.756 400.124C929.756 400.1 929.756 400.077 929.756 400.053L929.753 396.584C929.748 391.719 929.741 385.29 929.744 377.729C929.747 371.242 929.757 363.922 929.781 356.039C929.8 349.92 929.828 343.463 929.868 336.794C929.905 330.497 929.953 324.011 930.015 317.443C930.046 314.155 930.08 310.846 930.118 307.53C930.119 307.487 930.119 307.445 930.12 307.403C930.122 307.228 930.124 307.052 930.126 306.877C930.268 294.645 930.462 282.327 930.725 270.598C930.753 269.336 930.782 268.081 930.812 266.833C930.985 259.627 931.185 252.675 931.418 246.14C931.426 245.895 931.435 245.65 931.444 245.407C932.338 220.612 933.697 201.96 935.758 198.4C938.217 194.783 940.914 191.084 943.784 187.309C943.894 187.163 944.005 187.018 944.116 186.872C944.211 186.748 944.307 186.623 944.402 186.498C945.561 184.982 946.747 183.453 947.957 181.913C950.589 178.561 953.33 175.152 956.14 171.69C957.917 169.501 959.72 167.29 961.541 165.059C973.85 149.975 986.937 133.938 997.586 117.173C1014.25 90.9439 1024.94 62.9322 1017.36 34C1017.29 33.7138 1017.22 33.4305 1017.14 33.1501C1017.13 33.0964 1017.11 33.0428 1017.1 32.9892C1010.81 9.31887 991.283 6.50814 971.758 14.2C971.723 14.2145 971.688 14.229 971.653 14.2435C971.516 14.3008 971.38 14.3585 971.243 14.4168C933.068 30.7076 918.383 84.0129 910.918 131.988C909.878 138.673 908.978 145.255 908.175 151.618C907.885 153.91 907.608 156.174 907.341 158.404C906.674 163.986 906.072 169.358 905.503 174.435L905.497 174.485C905.427 175.11 905.358 175.731 905.289 176.347C905.242 176.763 905.196 177.176 905.149 177.586C905.039 178.567 904.93 179.535 904.822 180.49C904.733 181.268 904.645 182.039 904.558 182.8C902.571 202.096 901.021 222.164 899.852 242.488C899.033 256.714 898.401 271.065 897.936 285.364C897.901 286.433 897.868 287.502 897.835 288.57C897.819 289.074 897.804 289.578 897.789 290.082C897.783 290.288 897.777 290.494 897.77 290.699C897.591 296.744 897.442 302.775 897.32 308.779C894.535 314.209 891.706 319.951 888.821 325.875C887.649 328.282 886.467 330.72 885.275 333.179C885.119 333.5 884.963 333.823 884.806 334.145C883.167 337.527 881.507 340.946 879.827 344.379C871.754 360.87 863.183 377.686 853.867 392.271C853.139 393.411 852.406 394.537 851.669 395.649C850.318 397.686 848.951 399.672 847.567 401.602C846.101 403.647 844.616 405.628 843.112 407.535C839.326 412.336 835.417 416.672 831.372 420.4C831.22 420.54 831.067 420.68 830.914 420.817C830.866 420.86 830.818 420.903 830.77 420.946C823.113 427.775 814.418 430.939 808.572 421C808.523 420.874 808.474 420.747 808.426 420.619C808.246 420.146 808.073 419.664 807.905 419.171C805.345 411.673 804.094 402.005 803.784 391.027C803.781 390.914 803.778 390.802 803.775 390.689C803.773 390.625 803.772 390.562 803.77 390.498C803.77 390.481 803.769 390.464 803.769 390.448C803.765 390.312 803.762 390.176 803.759 390.04C803.759 390.039 803.759 390.037 803.759 390.036C803.687 386.914 803.69 383.689 803.758 380.381C803.76 380.259 803.763 380.137 803.766 380.015C803.791 378.883 803.823 377.741 803.863 376.59C804.047 371.311 804.384 365.846 804.844 360.269C805.019 358.142 805.212 356 805.421 353.845C805.966 348.219 806.621 342.509 807.354 336.79C807.467 335.905 807.582 335.02 807.699 334.135C807.739 333.831 807.78 333.527 807.82 333.223C807.826 333.182 807.831 333.14 807.837 333.099C808.58 327.538 809.39 321.983 810.238 316.502C811.795 306.44 813.48 296.627 815.114 287.48C816.05 282.24 816.969 277.22 817.838 272.496C818.032 271.441 818.223 270.401 818.412 269.377L818.412 269.376L818.414 269.367L818.422 269.324C818.662 268.016 818.899 266.734 819.129 265.479C819.142 265.408 819.155 265.337 819.168 265.266C819.783 261.921 820.357 258.774 820.878 255.858C820.978 255.297 821.076 254.744 821.172 254.2C822.04 245.809 814.676 241.465 806.548 240.628C803.413 240.306 800.164 240.505 797.23 241.195C792.506 242.307 788.599 244.693 787.298 248.222C787.159 248.602 787.049 248.994 786.972 249.4C786.789 249.766 786.634 250.173 786.501 250.613C786.041 252.131 785.836 254.044 785.626 256.006C785.497 257.212 785.366 258.438 785.172 259.6C781.039 256.892 776.296 254.929 771.249 253.582C771.003 253.516 770.757 253.452 770.51 253.389C761.047 250.989 750.581 250.709 741.091 251.715C741.077 251.717 741.063 251.718 741.049 251.72C740.424 251.786 739.803 251.858 739.187 251.936C733.491 252.652 728.208 253.824 723.783 255.264C723.645 255.309 723.508 255.355 723.372 255.4C703.725 262.037 687.251 274.783 675.352 291.195C675.258 291.325 675.164 291.454 675.071 291.584C674.997 291.687 674.923 291.79 674.85 291.893C674.761 292.018 674.672 292.144 674.583 292.269C666.696 303.439 660.902 316.25 657.631 329.955C655.228 340.024 654.187 350.575 654.678 361.311C654.044 362.861 653.401 364.421 652.752 365.99C652.748 365.998 652.745 366.006 652.741 366.014C649.74 373.259 646.576 380.681 643.294 388.111C637.909 400.306 632.207 412.521 626.385 424.009C622.195 432.276 617.943 440.167 613.703 447.4C613.479 447.783 613.256 448.161 613.034 448.536C613.033 448.537 613.033 448.537 613.033 448.537C590.562 486.363 573.415 484.441 564.503 468.4C563.453 466.408 562.479 464.371 561.578 462.293C561.543 462.213 561.509 462.134 561.474 462.054C544.93 423.634 552.877 371.175 559.749 325.81C559.979 324.29 560.208 322.777 560.435 321.274C561.232 315.996 562.002 310.827 562.703 305.8C562.703 304.077 561.812 302.737 560.249 301.685C559.617 301.258 558.874 300.879 558.036 300.54C556.254 299.82 554.04 299.282 551.534 298.866C546.928 298.1 541.336 297.743 535.63 297.409C535.247 297.387 534.864 297.364 534.48 297.342C524.867 296.782 515.095 296.213 509.303 293.8C511.027 290.065 512.854 285.71 514.636 281C516.995 274.766 519.275 267.908 521.132 261.039C521.186 260.84 521.24 260.641 521.293 260.442C521.485 259.72 521.673 258.998 521.856 258.277C521.866 258.235 521.877 258.194 521.887 258.152C522.168 257.041 522.436 255.933 522.69 254.828C523.398 251.753 523.999 248.714 524.461 245.765C524.6 244.88 524.726 244.004 524.839 243.137C524.864 242.948 524.888 242.76 524.911 242.571C525.203 240.219 525.395 237.941 525.469 235.768C525.469 235.761 525.469 235.754 525.47 235.747C525.492 235.088 525.503 234.439 525.503 233.8C525.993 196.354 508.712 188.06 491.335 195.274C491.281 195.296 491.228 195.318 491.175 195.341C478.861 200.52 466.526 213.466 460.457 229.324C456.976 238.421 455.557 248.476 457.387 258.573C457.581 259.642 457.811 260.712 458.079 261.782C458.152 262.073 458.228 262.365 458.307 262.656C458.419 263.071 458.537 263.485 458.66 263.899C458.69 263.999 458.72 264.098 458.75 264.197C459.423 266.399 460.26 268.596 461.276 270.776C461.656 271.592 462.062 272.406 462.492 273.218C462.71 273.628 462.935 274.038 463.166 274.448C463.263 274.618 463.36 274.789 463.459 274.959C463.91 275.737 464.385 276.512 464.884 277.284C466.133 279.212 467.536 281.12 469.103 283C470.078 284.191 471.092 285.363 472.155 286.516C472.166 286.528 472.177 286.539 472.188 286.551C477.265 292.044 483.482 297.102 492.036 301.774C492.772 302.176 493.525 302.575 494.296 302.971C493.269 304.903 492.237 306.885 491.199 308.91C487.302 316.51 483.321 324.721 479.22 333.179C479.064 333.501 478.908 333.823 478.752 334.145C478.605 334.447 478.458 334.75 478.311 335.053C478.205 335.272 478.099 335.49 477.993 335.709C477.262 337.216 476.527 338.73 475.788 340.248C474.571 342.748 473.343 345.261 472.103 347.777C464.519 363.167 456.489 378.687 447.812 392.271C447.084 393.411 446.351 394.537 445.614 395.649C442.83 399.845 439.98 403.829 437.057 407.535C433.271 412.336 429.362 416.672 425.317 420.4C425.165 420.54 425.012 420.68 424.859 420.817C424.811 420.86 424.763 420.903 424.716 420.946C417.058 427.775 408.363 430.939 402.517 421C402.468 420.874 402.419 420.747 402.371 420.619C402.192 420.146 402.018 419.664 401.85 419.171C399.291 411.673 398.04 402.005 397.73 391.027C397.726 390.914 397.723 390.802 397.72 390.689C397.719 390.625 397.717 390.562 397.715 390.498C397.715 390.481 397.715 390.464 397.714 390.448C397.711 390.312 397.707 390.176 397.704 390.04C397.704 390.039 397.704 390.037 397.704 390.036C397.632 386.914 397.635 383.689 397.703 380.381C397.706 380.259 397.708 380.137 397.711 380.015C397.736 378.883 397.769 377.741 397.808 376.59C397.992 371.311 398.329 365.846 398.789 360.269C398.964 358.143 399.157 356 399.366 353.845C399.912 348.218 400.566 342.509 401.299 336.79C401.412 335.905 401.527 335.02 401.644 334.135C401.685 333.831 401.725 333.527 401.765 333.223C401.771 333.182 401.776 333.14 401.782 333.099C402.525 327.538 403.335 321.983 404.183 316.502C405.74 306.44 407.425 296.627 409.059 287.48C409.628 284.296 410.191 281.192 410.74 278.187C411.094 276.247 411.442 274.349 411.783 272.496C411.977 271.441 412.169 270.4 412.358 269.375L412.359 269.367L412.365 269.335C412.606 268.023 412.843 266.737 413.074 265.479C413.087 265.408 413.101 265.337 413.114 265.266C413.728 261.921 414.303 258.774 414.823 255.858C414.923 255.297 415.021 254.744 415.117 254.2C415.747 248.115 412.047 244.158 406.866 242.124C404.902 241.353 402.727 240.858 400.493 240.628C397.358 240.306 394.109 240.505 391.175 241.195C386.451 242.307 382.544 244.693 381.244 248.222C381.104 248.602 380.994 248.994 380.917 249.4C380.734 249.766 380.579 250.173 380.446 250.613C379.986 252.131 379.781 254.044 379.571 256.005C379.442 257.212 379.311 258.437 379.117 259.6C374.984 256.892 370.241 254.929 365.194 253.582C364.949 253.516 364.702 253.452 364.455 253.389C354.993 250.989 344.526 250.709 335.036 251.715C335.022 251.717 335.008 251.718 334.994 251.72C334.369 251.786 333.748 251.858 333.132 251.936C327.259 252.674 321.824 253.898 317.317 255.4C291.782 264.027 271.605 282.973 259.868 306.875C251.524 323.868 247.446 343.365 248.74 363.439ZM322.999 272.218C322.98 272.235 322.96 272.253 322.941 272.27C305.329 288.085 291.838 319.582 287.042 346.53C287.022 346.645 287.001 346.76 286.981 346.875C286.037 352.259 285.441 357.458 285.231 362.308C285.225 362.44 285.22 362.571 285.215 362.701C284.428 382.788 290.323 396.791 305.531 393.063C305.552 393.058 305.572 393.053 305.593 393.048C305.898 392.972 306.205 392.89 306.517 392.8C310.288 391.429 314.071 389.078 317.812 386.016C323.72 381.181 329.523 374.57 335.008 367.237C335.052 367.179 335.095 367.121 335.138 367.063C340.48 359.905 345.517 352.07 350.053 344.533C352.413 340.612 354.637 336.772 356.697 333.149C357.5 331.738 358.278 330.36 359.029 329.023C359.921 327.437 360.775 325.91 361.589 324.454C362.336 323.117 363.05 321.84 363.728 320.634C365.616 317.274 367.227 314.463 368.514 312.429C368.652 312.21 368.786 312 368.917 311.8C370.079 303.085 371.523 296.479 372.907 290.145C373.705 286.491 374.484 282.927 375.178 279.1C375.765 275.86 376.291 272.431 376.717 268.6C375.971 267.965 375.184 267.384 374.366 266.852C372.008 265.321 369.379 264.201 366.641 263.398C365.373 263.026 364.081 262.722 362.783 262.477C352.209 260.483 341.155 262.389 338.317 263.2C337.471 263.445 336.63 263.73 335.794 264.053C332.454 265.345 329.206 267.249 326.073 269.66C325.036 270.458 324.011 271.312 322.999 272.218ZM500.303 290.2C500.392 290.059 500.481 289.916 500.57 289.769C503.963 284.201 507.469 274.739 510.339 264.82C510.347 264.793 510.355 264.765 510.363 264.737C511.039 262.399 511.679 260.035 512.274 257.692C512.426 257.091 512.576 256.492 512.722 255.894C513.834 251.357 514.765 246.939 515.442 242.974C515.946 240.019 516.31 237.316 516.503 235C516.538 234.596 516.569 234.196 516.596 233.8C516.598 233.761 516.601 233.722 516.604 233.684C516.653 232.951 516.689 232.233 516.713 231.528C516.718 231.389 516.722 231.25 516.726 231.112C517.231 212.764 509.367 204.183 501.503 209.8C496.198 213.514 490.189 221.919 486.431 232.422C486.423 232.446 486.415 232.469 486.407 232.492C486.313 232.755 486.22 233.02 486.129 233.285C486.071 233.456 486.013 233.628 485.956 233.8C485.558 234.994 485.191 236.212 484.857 237.451C484.162 240.031 483.614 242.702 483.249 245.432C482.994 247.343 482.829 249.283 482.767 251.24C482.576 257.228 483.347 263.383 485.443 269.384C485.465 269.448 485.488 269.512 485.51 269.576C486.4 272.086 487.522 274.568 488.903 277C490.987 280.646 494.879 285.65 498.618 288.868C499.186 289.357 499.75 289.805 500.303 290.2ZM694.903 337.858C694.208 340.783 693.604 343.682 693.097 346.53C693.077 346.645 693.056 346.76 693.036 346.875C692.091 352.259 691.496 357.458 691.286 362.308C691.28 362.44 691.275 362.571 691.27 362.701C690.812 374.395 692.618 384.026 697.207 389.298C699.601 392.048 702.753 393.612 706.736 393.664C708.233 393.683 709.849 393.489 711.586 393.063C711.606 393.058 711.627 393.053 711.648 393.048C711.952 392.972 712.26 392.89 712.572 392.8C716.343 391.429 720.125 389.078 723.866 386.016C729.774 381.181 735.578 374.57 741.063 367.237C741.106 367.179 741.15 367.121 741.193 367.063C746.534 359.905 751.572 352.07 756.108 344.533C758.468 340.612 760.692 336.772 762.752 333.149C763.555 331.738 764.333 330.36 765.084 329.023C765.975 327.437 766.829 325.91 767.643 324.454C768.391 323.117 769.105 321.84 769.783 320.634C771.671 317.274 773.282 314.463 774.568 312.429C774.707 312.21 774.841 312 774.972 311.8C776.134 303.085 777.577 296.48 778.961 290.146L778.962 290.144C779.76 286.49 780.539 282.927 781.232 279.1C781.82 275.86 782.346 272.431 782.772 268.6C782.025 267.965 781.239 267.384 780.42 266.852C778.062 265.321 775.433 264.201 772.696 263.398C771.427 263.026 770.136 262.722 768.837 262.477C758.264 260.483 747.21 262.389 744.372 263.2C743.526 263.445 742.684 263.73 741.849 264.053C738.998 265.156 736.214 266.705 733.512 268.634C733.048 268.964 732.587 269.307 732.128 269.66C731.09 270.458 730.065 271.312 729.054 272.218C729.034 272.235 729.015 272.253 728.995 272.27C721.685 278.835 715.085 288.101 709.522 298.622C709.33 298.985 709.139 299.349 708.95 299.715C708.853 299.903 708.756 300.091 708.659 300.279C708.552 300.489 708.445 300.699 708.338 300.909C702.478 312.488 697.861 325.417 694.903 337.858ZM936.358 180.4C941.09 174.157 946.634 167.39 952.521 160.205C954.456 157.842 956.429 155.435 958.421 152.986C978.466 128.352 1000.58 99.5156 1007.85 70.2693C1008.74 66.6873 1009.41 63.0992 1009.82 59.5119C1009.87 59.1036 1009.91 58.6952 1009.95 58.2868C1010.68 50.9276 1010.33 43.5751 1008.62 36.2897C1008.61 36.2395 1008.6 36.1893 1008.59 36.1391C1008.51 35.8259 1008.44 35.5129 1008.36 35.2C1004.16 17.2 993.958 19.6 983.758 28.6C982.282 29.8445 980.85 31.2258 979.462 32.7324C979.368 32.8347 979.274 32.9377 979.18 33.0411C976.351 36.1599 973.702 39.8007 971.221 43.8653C971.048 44.1487 970.875 44.4341 970.704 44.7216C970.552 44.9759 970.401 45.2319 970.251 45.4894C970.056 45.824 969.862 46.1613 969.668 46.5011C969.544 46.7198 969.42 46.9394 969.297 47.1602C969.253 47.2373 969.21 47.3146 969.167 47.392C967.639 50.1408 966.179 53.0519 964.782 56.0995C959.277 68.1103 954.765 82.2418 951.043 96.9189C943.423 126.964 939.111 159.295 936.358 180.4Z" fill="url(#paint0_linear)" class="JWPaFulf_2"></path>
<path fill-rule="evenodd" clip-rule="evenodd" d="M135.711 66.4991C145.114 69.5186 153.483 74.487 160.012 81.4465C169.151 91.1888 174.686 104.833 174.405 122.495C174.404 122.597 174.402 122.698 174.4 122.8C174.4 128.741 183.223 128.799 183.397 122.976C183.399 122.918 183.4 122.859 183.4 122.8C184.041 103.89 178.69 89.2604 169.633 78.2707C161.734 68.6873 151.018 61.8719 139 57.4C138.934 57.3761 138.868 57.3523 138.802 57.3286C138.641 57.2708 138.48 57.2134 138.319 57.1564C92.9158 41.0893 37.8253 55.8167 21.8369 102.694C21.726 103.019 21.617 103.345 21.5099 103.674C20.162 107.804 19.1146 112.179 18.4 116.8C8.2225 179.835 56.2487 218.797 104.288 257.771C144.043 290.024 183.808 322.284 190.6 368.2C190.798 369.471 190.973 370.73 191.126 371.977C191.13 372.011 191.134 372.045 191.138 372.079C194.206 397.277 188.22 417.583 176.8 433C174.655 435.852 172.419 438.515 170.103 440.996C170.085 441.015 170.067 441.034 170.05 441.053C125.824 488.34 52.5479 468.847 28.5325 415.859C22.9918 403.634 20.0732 389.626 20.7385 374.243C20.7564 373.83 20.7769 373.415 20.8 373C20.8042 372.953 20.8079 372.907 20.8112 372.861C21.2573 366.5 12.104 365.866 10.6663 372.079C10.6419 372.184 10.6198 372.291 10.6 372.4C10.5995 372.411 10.599 372.422 10.5985 372.433C9.83752 389.386 12.7257 404.504 18.3866 417.657C43.7722 476.636 124.916 496.085 182.8 464.2C189.432 460.571 195.621 456.289 201.197 451.35C201.254 451.3 201.311 451.249 201.368 451.198C209.507 443.953 216.332 435.298 221.315 425.219C229.073 409.523 232.363 390.37 229.188 367.697C229.178 367.627 229.168 367.557 229.158 367.487C229.107 367.125 229.054 366.763 229 366.4C228.813 365.131 228.598 363.869 228.355 362.615C228.337 362.522 228.319 362.429 228.3 362.336C224.862 344.898 216.083 328.845 204.188 313.639C187.115 291.811 163.624 271.726 140.303 251.786C94.1404 212.315 48.6428 173.413 54.8978 122.693C54.9079 122.611 54.918 122.53 54.9283 122.449C55.3374 119.215 55.9569 115.933 56.8 112.6C67 76.6 97 52 135.4 66.4C135.475 66.4236 135.55 66.4474 135.625 66.4713C135.653 66.4806 135.682 66.4898 135.711 66.4991ZM248.74 363.439C248.741 363.457 248.743 363.475 248.744 363.493C248.794 364.261 248.851 365.03 248.917 365.8C250.832 385.718 262.529 401.234 278.854 406.105C287.941 408.816 298.462 408.229 309.528 403.268C309.725 403.18 309.921 403.091 310.117 403C310.148 402.986 310.18 402.972 310.211 402.957C313.394 401.503 316.428 399.735 319.329 397.708C330.765 389.72 340.124 377.721 348.31 365.134C352.571 358.582 356.515 351.872 360.268 345.485L360.268 345.484C362.615 341.49 364.888 337.623 367.117 334C365.682 351.577 365.534 379.449 371.161 402.228C372.151 406.236 373.319 410.086 374.691 413.695C376.861 419.404 379.54 424.508 382.824 428.677C383.54 429.587 384.286 430.451 385.061 431.268C387.073 433.389 389.286 435.186 391.717 436.6C402.517 443.8 417.517 439 430.717 427.6C430.941 427.398 431.165 427.194 431.388 426.988C431.39 426.986 431.392 426.985 431.394 426.983C446.004 413.522 459.513 391.922 471.857 368.954C474.894 363.303 477.86 357.569 480.755 351.853C482.524 348.36 484.267 344.873 485.983 341.416C486.418 340.539 486.851 339.664 487.283 338.792C487.314 338.729 487.345 338.667 487.376 338.604C488.793 335.739 490.191 332.9 491.57 330.098C494.895 323.347 498.109 316.818 501.213 310.698C501.842 309.457 502.466 308.234 503.086 307.028C503.286 307.111 503.486 307.194 503.688 307.277C506.144 308.284 508.751 309.272 511.523 310.241C512.002 310.409 512.486 310.576 512.974 310.742C514.993 311.428 517.096 312.106 519.29 312.773C522.907 313.874 526.77 314.949 530.903 316C530.486 318.337 530.056 320.705 529.618 323.101C529.439 324.085 529.258 325.073 529.076 326.066C528.558 328.898 528.033 331.765 527.511 334.664C527.269 336.007 527.028 337.358 526.788 338.714C526.53 340.175 526.273 341.643 526.019 343.117C525.804 344.366 525.591 345.62 525.381 346.878C524.906 349.72 524.445 352.582 524.006 355.461C522.602 364.677 521.425 374.061 520.739 383.459C518.315 416.658 522.021 450.036 543.503 476.8C544.019 477.428 544.541 478.042 545.071 478.641C545.181 478.765 545.291 478.889 545.402 479.012C564.61 500.377 593.076 502.186 622.103 454C622.351 453.589 622.598 453.175 622.846 452.76C622.848 452.756 622.85 452.752 622.852 452.749C626.604 446.448 630.353 439.626 634.053 432.469C638.823 423.243 643.51 413.461 648.016 403.528C651.555 395.729 654.981 387.836 658.248 380.044C663.742 394.515 675.18 404.782 689.534 407.175C693.168 407.781 696.989 407.882 700.948 407.419C705.659 406.868 710.565 405.517 715.583 403.268C715.779 403.18 715.975 403.091 716.172 403C716.203 402.986 716.234 402.972 716.266 402.957C719.448 401.503 722.483 399.735 725.384 397.708C736.819 389.72 746.178 377.721 754.365 365.134C758.626 358.582 762.569 351.872 766.323 345.485C768.67 341.491 770.942 337.623 773.172 334C771.737 351.577 771.589 379.449 777.215 402.228C778.205 406.236 779.374 410.086 780.746 413.695C782.916 419.404 785.595 424.508 788.879 428.677C789.595 429.587 790.34 430.451 791.116 431.268C793.128 433.389 795.34 435.186 797.772 436.6C808.572 443.8 823.572 439 836.772 427.6C836.996 427.398 837.22 427.194 837.443 426.988C837.445 426.986 837.447 426.985 837.449 426.983C841.026 423.687 844.537 419.903 847.982 415.73C859.309 402.008 869.913 384.083 879.758 365.492C884.492 356.552 889.051 347.459 893.43 338.604C894.125 337.201 894.814 335.803 895.5 334.413C895.999 333.4 896.497 332.39 896.992 331.385C896.966 334.196 896.947 336.998 896.934 339.789C896.889 349.289 896.91 358.658 896.993 367.84C897.073 376.795 897.212 385.572 897.402 394.118C897.469 397.108 897.542 400.069 897.621 403C897.631 403.367 897.641 403.733 897.651 404.099C897.664 404.539 897.676 404.978 897.688 405.416C897.79 408.992 897.9 412.521 898.019 415.999C898.118 418.867 898.222 421.701 898.332 424.497C898.405 426.348 898.48 428.182 898.558 430C898.558 430.501 898.58 430.994 898.623 431.477C898.726 432.639 898.951 433.748 899.281 434.8C904.064 450.058 930.958 453.386 930.958 434.8C931.409 433.37 931.889 431.765 932.396 430C932.533 429.523 932.672 429.035 932.813 428.536C934.203 423.607 935.785 417.582 937.539 410.787C937.932 409.266 938.333 407.707 938.742 406.113C938.794 405.912 938.845 405.711 938.897 405.509C939.11 404.682 939.324 403.845 939.541 403C939.611 402.728 939.681 402.456 939.751 402.183L939.751 402.181C941.579 395.058 943.56 387.337 945.676 379.315C946.132 377.587 946.594 375.844 947.062 374.091C950.286 362.019 953.798 349.424 957.54 337.269C957.687 336.793 957.834 336.318 957.981 335.843C961.27 325.242 964.733 315.007 968.331 305.782C970.936 299.103 973.611 292.953 976.342 287.578C976.509 287.249 976.676 286.923 976.844 286.6C978.065 284.245 979.297 282.046 980.539 280.027C986.062 271.046 991.773 265.6 997.558 265.6C998.804 265.6 999.681 267.185 1000.3 269.493C1000.4 269.871 1000.49 270.268 1000.58 270.681C1001.76 276.244 1001.76 284.636 1001.76 286.6C1001.82 288.242 1001.85 289.937 1001.85 291.678C1001.85 291.827 1001.85 291.977 1001.85 292.127C1001.84 295.797 1001.71 299.665 1001.49 303.659C1001.27 307.507 1000.98 311.471 1000.63 315.49C1000.14 321.324 999.542 327.272 998.955 333.138C998.753 335.159 998.552 337.171 998.356 339.165C998.29 339.837 998.225 340.507 998.16 341.174C998.159 341.183 998.159 341.191 998.158 341.2C998.136 341.362 998.115 341.525 998.093 341.69C996.643 352.801 995.598 368.712 995.644 385.966C995.687 402.363 996.715 419.971 999.314 435.822C999.389 436.276 999.464 436.729 999.541 437.18C999.878 439.149 1000.24 441.089 1000.63 442.995C1000.64 443.084 1000.66 443.172 1000.68 443.261C1001.81 448.782 1003.16 454.009 1004.76 458.8C1006.23 462.787 1007.81 466.308 1009.48 469.377C1009.67 469.724 1009.86 470.066 1010.05 470.402C1022.27 491.837 1038.96 489.666 1050.44 468.193C1050.44 468.179 1050.45 468.165 1050.46 468.151C1050.83 467.454 1051.2 466.737 1051.56 466C1052.61 463.826 1053.64 461.639 1054.65 459.439C1054.97 458.757 1055.28 458.074 1055.59 457.39C1058.89 450.144 1062.01 442.764 1064.99 435.278C1068.73 425.873 1072.24 416.302 1075.6 406.623C1083.24 384.559 1090.06 361.933 1096.85 339.43C1096.86 339.386 1096.87 339.341 1096.89 339.296C1101.13 325.227 1105.35 311.205 1109.76 297.4C1109.86 297.082 1109.93 296.775 1109.99 296.477C1110 296.433 1110.01 296.389 1110.01 296.346C1111.22 289.447 1101.87 288.052 1100.16 293.2C1100.05 293.544 1099.94 293.887 1099.83 294.231C1099.82 294.266 1099.81 294.3 1099.8 294.335C1095.44 308.045 1091.25 322.137 1087.03 336.345C1086.91 336.768 1086.78 337.191 1086.66 337.614C1084.07 346.338 1081.47 355.102 1078.81 363.846C1072.06 386.059 1064.94 408.136 1056.7 429.071C1055.07 433.211 1053.4 437.306 1051.67 441.349C1051.64 441.415 1051.62 441.481 1051.59 441.547C1051.38 442.037 1051.17 442.526 1050.96 443.014C1050.89 443.165 1050.83 443.315 1050.76 443.465C1048.16 449.472 1045.45 455.359 1042.61 461.1C1042.54 461.241 1042.47 461.382 1042.4 461.523C1042.39 461.538 1042.38 461.553 1042.38 461.568C1042.27 461.782 1042.16 461.996 1042.06 462.21C1041.82 462.674 1041.59 463.138 1041.36 463.6C1037.16 472 1031.16 478 1027.56 465.4C1026.95 462.621 1026.46 459.446 1026.08 455.96C1026.07 455.929 1026.07 455.897 1026.07 455.865C1025.99 455.119 1025.91 454.358 1025.84 453.584C1025.83 453.529 1025.83 453.474 1025.82 453.419C1025.78 452.893 1025.73 452.361 1025.69 451.823C1025.67 451.587 1025.65 451.349 1025.63 451.11C1025.27 446.35 1025.06 441.152 1024.99 435.693C1024.93 431.684 1024.94 427.534 1025.01 423.313C1025.16 414.61 1025.54 405.607 1026.04 396.918C1027.04 379.71 1028.52 363.733 1029.59 353.762C1029.98 350.151 1030.31 347.327 1030.54 345.518C1030.55 345.478 1030.55 345.439 1030.56 345.4C1030.6 345.049 1030.64 344.698 1030.68 344.347C1032.91 324.164 1032.89 304.027 1029.03 286.6C1028.95 286.252 1028.88 285.906 1028.8 285.56C1028.78 285.507 1028.77 285.453 1028.76 285.4C1025.76 273.4 1019.16 258.4 1004.76 254.2C1002.3 253.576 999.896 253.419 997.558 253.682C991.619 254.352 986.077 257.738 980.922 263.085C975.302 268.916 970.142 277.08 965.431 286.6C965.198 287.071 964.966 287.546 964.735 288.024C964.469 288.574 964.204 289.129 963.941 289.687C962.673 292.38 961.438 295.167 960.237 298.029C957.546 304.438 955.024 311.22 952.667 318.147C952.518 318.584 952.37 319.022 952.223 319.459C951.148 322.654 950.109 325.875 949.104 329.103C948.369 331.462 947.653 333.823 946.956 336.179C945.341 341.633 943.824 347.056 942.405 352.342C939.046 364.854 936.231 376.593 933.943 386.133L933.942 386.141C932.591 391.773 931.424 396.639 930.438 400.445C930.201 401.359 929.974 402.212 929.758 403C929.758 402.17 929.757 401.208 929.756 400.124C929.756 400.1 929.756 400.077 929.756 400.053L929.753 396.584C929.748 391.719 929.741 385.29 929.744 377.729C929.747 371.242 929.757 363.922 929.781 356.039C929.8 349.92 929.828 343.463 929.868 336.794C929.905 330.497 929.953 324.011 930.015 317.443C930.046 314.155 930.08 310.846 930.118 307.53C930.119 307.487 930.119 307.445 930.12 307.403C930.122 307.228 930.124 307.052 930.126 306.877C930.268 294.645 930.462 282.327 930.725 270.598C930.753 269.336 930.782 268.081 930.812 266.833C930.985 259.627 931.185 252.675 931.418 246.14C931.426 245.895 931.435 245.65 931.444 245.407C932.338 220.612 933.697 201.96 935.758 198.4C938.217 194.783 940.914 191.084 943.784 187.309C943.894 187.163 944.005 187.018 944.116 186.872C944.211 186.748 944.307 186.623 944.402 186.498C945.561 184.982 946.747 183.453 947.957 181.913C950.589 178.561 953.33 175.152 956.14 171.69C957.917 169.501 959.72 167.29 961.541 165.059C973.85 149.975 986.937 133.938 997.586 117.173C1014.25 90.9439 1024.94 62.9322 1017.36 34C1017.29 33.7138 1017.22 33.4305 1017.14 33.1501C1017.13 33.0964 1017.11 33.0428 1017.1 32.9892C1010.81 9.31887 991.283 6.50814 971.758 14.2C971.723 14.2145 971.688 14.229 971.653 14.2435C971.516 14.3008 971.38 14.3585 971.243 14.4168C933.068 30.7076 918.383 84.0129 910.918 131.988C909.878 138.673 908.978 145.255 908.175 151.618C907.885 153.91 907.608 156.174 907.341 158.404C906.674 163.986 906.072 169.358 905.503 174.435L905.497 174.485C905.427 175.11 905.358 175.731 905.289 176.347C905.242 176.763 905.196 177.176 905.149 177.586C905.039 178.567 904.93 179.535 904.822 180.49C904.733 181.268 904.645 182.039 904.558 182.8C902.571 202.096 901.021 222.164 899.852 242.488C899.033 256.714 898.401 271.065 897.936 285.364C897.901 286.433 897.868 287.502 897.835 288.57C897.819 289.074 897.804 289.578 897.789 290.082C897.783 290.288 897.777 290.494 897.77 290.699C897.591 296.744 897.442 302.775 897.32 308.779C894.535 314.209 891.706 319.951 888.821 325.875C887.649 328.282 886.467 330.72 885.275 333.179C885.119 333.5 884.963 333.823 884.806 334.145C883.167 337.527 881.507 340.946 879.827 344.379C871.754 360.87 863.183 377.686 853.867 392.271C853.139 393.411 852.406 394.537 851.669 395.649C850.318 397.686 848.951 399.672 847.567 401.602C846.101 403.647 844.616 405.628 843.112 407.535C839.326 412.336 835.417 416.672 831.372 420.4C831.22 420.54 831.067 420.68 830.914 420.817C830.866 420.86 830.818 420.903 830.77 420.946C823.113 427.775 814.418 430.939 808.572 421C808.523 420.874 808.474 420.747 808.426 420.619C808.246 420.146 808.073 419.664 807.905 419.171C805.345 411.673 804.094 402.005 803.784 391.027C803.781 390.914 803.778 390.802 803.775 390.689C803.773 390.625 803.772 390.562 803.77 390.498C803.77 390.481 803.769 390.464 803.769 390.448C803.765 390.312 803.762 390.176 803.759 390.04C803.759 390.039 803.759 390.037 803.759 390.036C803.687 386.914 803.69 383.689 803.758 380.381C803.76 380.259 803.763 380.137 803.766 380.015C803.791 378.883 803.823 377.741 803.863 376.59C804.047 371.311 804.384 365.846 804.844 360.269C805.019 358.142 805.212 356 805.421 353.845C805.966 348.219 806.621 342.509 807.354 336.79C807.467 335.905 807.582 335.02 807.699 334.135C807.739 333.831 807.78 333.527 807.82 333.223C807.826 333.182 807.831 333.14 807.837 333.099C808.58 327.538 809.39 321.983 810.238 316.502C811.795 306.44 813.48 296.627 815.114 287.48C816.05 282.24 816.969 277.22 817.838 272.496C818.032 271.441 818.223 270.401 818.412 269.377L818.412 269.376L818.414 269.367L818.422 269.324C818.662 268.016 818.899 266.734 819.129 265.479C819.142 265.408 819.155 265.337 819.168 265.266C819.783 261.921 820.357 258.774 820.878 255.858C820.978 255.297 821.076 254.744 821.172 254.2C822.04 245.809 814.676 241.465 806.548 240.628C803.413 240.306 800.164 240.505 797.23 241.195C792.506 242.307 788.599 244.693 787.298 248.222C787.159 248.602 787.049 248.994 786.972 249.4C786.789 249.766 786.634 250.173 786.501 250.613C786.041 252.131 785.836 254.044 785.626 256.006C785.497 257.212 785.366 258.438 785.172 259.6C781.039 256.892 776.296 254.929 771.249 253.582C771.003 253.516 770.757 253.452 770.51 253.389C761.047 250.989 750.581 250.709 741.091 251.715C741.077 251.717 741.063 251.718 741.049 251.72C740.424 251.786 739.803 251.858 739.187 251.936C733.491 252.652 728.208 253.824 723.783 255.264C723.645 255.309 723.508 255.355 723.372 255.4C703.725 262.037 687.251 274.783 675.352 291.195C675.258 291.325 675.164 291.454 675.071 291.584C674.997 291.687 674.923 291.79 674.85 291.893C674.761 292.018 674.672 292.144 674.583 292.269C666.696 303.439 660.902 316.25 657.631 329.955C655.228 340.024 654.187 350.575 654.678 361.311C654.044 362.861 653.401 364.421 652.752 365.99C652.748 365.998 652.745 366.006 652.741 366.014C649.74 373.259 646.576 380.681 643.294 388.111C637.909 400.306 632.207 412.521 626.385 424.009C622.195 432.276 617.943 440.167 613.703 447.4C613.479 447.783 613.256 448.161 613.034 448.536C613.033 448.537 613.033 448.537 613.033 448.537C590.562 486.363 573.415 484.441 564.503 468.4C563.453 466.408 562.479 464.371 561.578 462.293C561.543 462.213 561.509 462.134 561.474 462.054C544.93 423.634 552.877 371.175 559.749 325.81C559.979 324.29 560.208 322.777 560.435 321.274C561.232 315.996 562.002 310.827 562.703 305.8C562.703 304.077 561.812 302.737 560.249 301.685C559.617 301.258 558.874 300.879 558.036 300.54C556.254 299.82 554.04 299.282 551.534 298.866C546.928 298.1 541.336 297.743 535.63 297.409C535.247 297.387 534.864 297.364 534.48 297.342C524.867 296.782 515.095 296.213 509.303 293.8C511.027 290.065 512.854 285.71 514.636 281C516.995 274.766 519.275 267.908 521.132 261.039C521.186 260.84 521.24 260.641 521.293 260.442C521.485 259.72 521.673 258.998 521.856 258.277C521.866 258.235 521.877 258.194 521.887 258.152C522.168 257.041 522.436 255.933 522.69 254.828C523.398 251.753 523.999 248.714 524.461 245.765C524.6 244.88 524.726 244.004 524.839 243.137C524.864 242.948 524.888 242.76 524.911 242.571C525.203 240.219 525.395 237.941 525.469 235.768C525.469 235.761 525.469 235.754 525.47 235.747C525.492 235.088 525.503 234.439 525.503 233.8C525.993 196.354 508.712 188.06 491.335 195.274C491.281 195.296 491.228 195.318 491.175 195.341C478.861 200.52 466.526 213.466 460.457 229.324C456.976 238.421 455.557 248.476 457.387 258.573C457.581 259.642 457.811 260.712 458.079 261.782C458.152 262.073 458.228 262.365 458.307 262.656C458.419 263.071 458.537 263.485 458.66 263.899C458.69 263.999 458.72 264.098 458.75 264.197C459.423 266.399 460.26 268.596 461.276 270.776C461.656 271.592 462.062 272.406 462.492 273.218C462.71 273.628 462.935 274.038 463.166 274.448C463.263 274.618 463.36 274.789 463.459 274.959C463.91 275.737 464.385 276.512 464.884 277.284C466.133 279.212 467.536 281.12 469.103 283C470.078 284.191 471.092 285.363 472.155 286.516C472.166 286.528 472.177 286.539 472.188 286.551C477.265 292.044 483.482 297.102 492.036 301.774C492.772 302.176 493.525 302.575 494.296 302.971C493.269 304.903 492.237 306.885 491.199 308.91C487.302 316.51 483.321 324.721 479.22 333.179C479.064 333.501 478.908 333.823 478.752 334.145C478.605 334.447 478.458 334.75 478.311 335.053C478.205 335.272 478.099 335.49 477.993 335.709C477.262 337.216 476.527 338.73 475.788 340.248C474.571 342.748 473.343 345.261 472.103 347.777C464.519 363.167 456.489 378.687 447.812 392.271C447.084 393.411 446.351 394.537 445.614 395.649C442.83 399.845 439.98 403.829 437.057 407.535C433.271 412.336 429.362 416.672 425.317 420.4C425.165 420.54 425.012 420.68 424.859 420.817C424.811 420.86 424.763 420.903 424.716 420.946C417.058 427.775 408.363 430.939 402.517 421C402.468 420.874 402.419 420.747 402.371 420.619C402.192 420.146 402.018 419.664 401.85 419.171C399.291 411.673 398.04 402.005 397.73 391.027C397.726 390.914 397.723 390.802 397.72 390.689C397.719 390.625 397.717 390.562 397.715 390.498C397.715 390.481 397.715 390.464 397.714 390.448C397.711 390.312 397.707 390.176 397.704 390.04C397.704 390.039 397.704 390.037 397.704 390.036C397.632 386.914 397.635 383.689 397.703 380.381C397.706 380.259 397.708 380.137 397.711 380.015C397.736 378.883 397.769 377.741 397.808 376.59C397.992 371.311 398.329 365.846 398.789 360.269C398.964 358.143 399.157 356 399.366 353.845C399.912 348.218 400.566 342.509 401.299 336.79C401.412 335.905 401.527 335.02 401.644 334.135C401.685 333.831 401.725 333.527 401.765 333.223C401.771 333.182 401.776 333.14 401.782 333.099C402.525 327.538 403.335 321.983 404.183 316.502C405.74 306.44 407.425 296.627 409.059 287.48C409.628 284.296 410.191 281.192 410.74 278.187C411.094 276.247 411.442 274.349 411.783 272.496C411.977 271.441 412.169 270.4 412.358 269.375L412.359 269.367L412.365 269.335C412.606 268.023 412.843 266.737 413.074 265.479C413.087 265.408 413.101 265.337 413.114 265.266C413.728 261.921 414.303 258.774 414.823 255.858C414.923 255.297 415.021 254.744 415.117 254.2C415.747 248.115 412.047 244.158 406.866 242.124C404.902 241.353 402.727 240.858 400.493 240.628C397.358 240.306 394.109 240.505 391.175 241.195C386.451 242.307 382.544 244.693 381.244 248.222C381.104 248.602 380.994 248.994 380.917 249.4C380.734 249.766 380.579 250.173 380.446 250.613C379.986 252.131 379.781 254.044 379.571 256.005C379.442 257.212 379.311 258.437 379.117 259.6C374.984 256.892 370.241 254.929 365.194 253.582C364.949 253.516 364.702 253.452 364.455 253.389C354.993 250.989 344.526 250.709 335.036 251.715C335.022 251.717 335.008 251.718 334.994 251.72C334.369 251.786 333.748 251.858 333.132 251.936C327.259 252.674 321.824 253.898 317.317 255.4C291.782 264.027 271.605 282.973 259.868 306.875C251.524 323.868 247.446 343.365 248.74 363.439ZM322.999 272.218C322.98 272.235 322.96 272.253 322.941 272.27C305.329 288.085 291.838 319.582 287.042 346.53C287.022 346.645 287.001 346.76 286.981 346.875C286.037 352.259 285.441 357.458 285.231 362.308C285.225 362.44 285.22 362.571 285.215 362.701C284.428 382.788 290.323 396.791 305.531 393.063C305.552 393.058 305.572 393.053 305.593 393.048C305.898 392.972 306.205 392.89 306.517 392.8C310.288 391.429 314.071 389.078 317.812 386.016C323.72 381.181 329.523 374.57 335.008 367.237C335.052 367.179 335.095 367.121 335.138 367.063C340.48 359.905 345.517 352.07 350.053 344.533C352.413 340.612 354.637 336.772 356.697 333.149C357.5 331.738 358.278 330.36 359.029 329.023C359.921 327.437 360.775 325.91 361.589 324.454C362.336 323.117 363.05 321.84 363.728 320.634C365.616 317.274 367.227 314.463 368.514 312.429C368.652 312.21 368.786 312 368.917 311.8C370.079 303.085 371.523 296.479 372.907 290.145C373.705 286.491 374.484 282.927 375.178 279.1C375.765 275.86 376.291 272.431 376.717 268.6C375.971 267.965 375.184 267.384 374.366 266.852C372.008 265.321 369.379 264.201 366.641 263.398C365.373 263.026 364.081 262.722 362.783 262.477C352.209 260.483 341.155 262.389 338.317 263.2C337.471 263.445 336.63 263.73 335.794 264.053C332.454 265.345 329.206 267.249 326.073 269.66C325.036 270.458 324.011 271.312 322.999 272.218ZM500.303 290.2C500.392 290.059 500.481 289.916 500.57 289.769C503.963 284.201 507.469 274.739 510.339 264.82C510.347 264.793 510.355 264.765 510.363 264.737C511.039 262.399 511.679 260.035 512.274 257.692C512.426 257.091 512.576 256.492 512.722 255.894C513.834 251.357 514.765 246.939 515.442 242.974C515.946 240.019 516.31 237.316 516.503 235C516.538 234.596 516.569 234.196 516.596 233.8C516.598 233.761 516.601 233.722 516.604 233.684C516.653 232.951 516.689 232.233 516.713 231.528C516.718 231.389 516.722 231.25 516.726 231.112C517.231 212.764 509.367 204.183 501.503 209.8C496.198 213.514 490.189 221.919 486.431 232.422C486.423 232.446 486.415 232.469 486.407 232.492C486.313 232.755 486.22 233.02 486.129 233.285C486.071 233.456 486.013 233.628 485.956 233.8C485.558 234.994 485.191 236.212 484.857 237.451C484.162 240.031 483.614 242.702 483.249 245.432C482.994 247.343 482.829 249.283 482.767 251.24C482.576 257.228 483.347 263.383 485.443 269.384C485.465 269.448 485.488 269.512 485.51 269.576C486.4 272.086 487.522 274.568 488.903 277C490.987 280.646 494.879 285.65 498.618 288.868C499.186 289.357 499.75 289.805 500.303 290.2ZM694.903 337.858C694.208 340.783 693.604 343.682 693.097 346.53C693.077 346.645 693.056 346.76 693.036 346.875C692.091 352.259 691.496 357.458 691.286 362.308C691.28 362.44 691.275 362.571 691.27 362.701C690.812 374.395 692.618 384.026 697.207 389.298C699.601 392.048 702.753 393.612 706.736 393.664C708.233 393.683 709.849 393.489 711.586 393.063C711.606 393.058 711.627 393.053 711.648 393.048C711.952 392.972 712.26 392.89 712.572 392.8C716.343 391.429 720.125 389.078 723.866 386.016C729.774 381.181 735.578 374.57 741.063 367.237C741.106 367.179 741.15 367.121 741.193 367.063C746.534 359.905 751.572 352.07 756.108 344.533C758.468 340.612 760.692 336.772 762.752 333.149C763.555 331.738 764.333 330.36 765.084 329.023C765.975 327.437 766.829 325.91 767.643 324.454C768.391 323.117 769.105 321.84 769.783 320.634C771.671 317.274 773.282 314.463 774.568 312.429C774.707 312.21 774.841 312 774.972 311.8C776.134 303.085 777.577 296.48 778.961 290.146L778.962 290.144C779.76 286.49 780.539 282.927 781.232 279.1C781.82 275.86 782.346 272.431 782.772 268.6C782.025 267.965 781.239 267.384 780.42 266.852C778.062 265.321 775.433 264.201 772.696 263.398C771.427 263.026 770.136 262.722 768.837 262.477C758.264 260.483 747.21 262.389 744.372 263.2C743.526 263.445 742.684 263.73 741.849 264.053C738.998 265.156 736.214 266.705 733.512 268.634C733.048 268.964 732.587 269.307 732.128 269.66C731.09 270.458 730.065 271.312 729.054 272.218C729.034 272.235 729.015 272.253 728.995 272.27C721.685 278.835 715.085 288.101 709.522 298.622C709.33 298.985 709.139 299.349 708.95 299.715C708.853 299.903 708.756 300.091 708.659 300.279C708.552 300.489 708.445 300.699 708.338 300.909C702.478 312.488 697.861 325.417 694.903 337.858ZM936.358 180.4C941.09 174.157 946.634 167.39 952.521 160.205C954.456 157.842 956.429 155.435 958.421 152.986C978.466 128.352 1000.58 99.5156 1007.85 70.2693C1008.74 66.6873 1009.41 63.0992 1009.82 59.5119C1009.87 59.1036 1009.91 58.6952 1009.95 58.2868C1010.68 50.9276 1010.33 43.5751 1008.62 36.2897C1008.61 36.2395 1008.6 36.1893 1008.59 36.1391C1008.51 35.8259 1008.44 35.5129 1008.36 35.2C1004.16 17.2 993.958 19.6 983.758 28.6C982.282 29.8445 980.85 31.2258 979.462 32.7324C979.368 32.8347 979.274 32.9377 979.18 33.0411C976.351 36.1599 973.702 39.8007 971.221 43.8653C971.048 44.1487 970.875 44.4341 970.704 44.7216C970.552 44.9759 970.401 45.2319 970.251 45.4894C970.056 45.824 969.862 46.1613 969.668 46.5011C969.544 46.7198 969.42 46.9394 969.297 47.1602C969.253 47.2373 969.21 47.3146 969.167 47.392C967.639 50.1408 966.179 53.0519 964.782 56.0995C959.277 68.1103 954.765 82.2418 951.043 96.9189C943.423 126.964 939.111 159.295 936.358 180.4Z" stroke="url(#paint1_linear)" stroke-width="20" mask="url(#path-1-outside-1)" class="JWPaFulf_3"></path>
<defs>
<linearGradient id="paint0_linear" x1="560.3" y1="10.3811" x2="560.3" y2="493.332" gradientUnits="userSpaceOnUse">
<stop stop-color="#BDC2E8"></stop>
<stop offset="1" stop-color="#E6DEE9"></stop>
</linearGradient>
<linearGradient id="paint1_linear" x1="560.3" y1="10.3811" x2="560.3" y2="493.332" gradientUnits="userSpaceOnUse">
<stop stop-color="#BDC2E8"></stop>
<stop offset="1" stop-color="#E6DEE9"></stop>
</linearGradient>
</defs>
<style data-made-with="vivus-instant">.JWPaFulf_0{stroke-dasharray:3248 3250;stroke-dashoffset:3249;animation:JWPaFulf_draw 5000ms ease-in-out 0ms forwards;}.JWPaFulf_1{stroke-dasharray:8247 8249;stroke-dashoffset:8248;animation:JWPaFulf_draw 5000ms ease-in-out 0ms forwards;}.JWPaFulf_2{stroke-dasharray:8247 8249;stroke-dashoffset:8248;animation:JWPaFulf_draw 5000ms ease-in-out 0ms forwards;}.JWPaFulf_3{stroke-dasharray:8247 8249;stroke-dashoffset:8248;animation:JWPaFulf_draw 5000ms ease-in-out 0ms forwards;}@keyframes JWPaFulf_draw{100%{stroke-dashoffset:0;}}@keyframes JWPaFulf_fade{0%{stroke-opacity:1;}95.65217391304348%{stroke-opacity:1;}100%{stroke-opacity:0;}}</style></svg>
